<svg width="140" height="24" viewBox="0 0 140 24" fill="none" xmlns="http://www.w3.org/2000/svg">
<path d="M6.144 6.592C7.53067 6.592 8.68267 6.944 9.6 7.648C10.5173 8.352 11.136 9.30667 11.456 10.512H9.52C9.25333 9.82933 8.82667 9.29067 8.24 8.896C7.664 8.49067 6.95467 8.288 6.112 8.288C5.44 8.288 4.83733 8.45333 4.304 8.784C3.78133 9.11467 3.36533 9.58933 3.056 10.208C2.75733 10.816 2.608 11.5307 2.608 12.352C2.608 13.1627 2.75733 13.8773 3.056 14.496C3.36533 15.104 3.78133 15.5733 4.304 15.904C4.83733 16.2347 5.44 16.4 6.112 16.4C6.95467 16.4 7.664 16.2027 8.24 15.808C8.82667 15.4027 9.25333 14.864 9.52 14.192H11.456C11.136 15.3973 10.5173 16.352 9.6 17.056C8.68267 17.7493 7.53067 18.096 6.144 18.096C5.07733 18.096 4.13333 17.856 3.312 17.376C2.49067 16.8853 1.856 16.208 1.408 15.344C0.96 14.4693 0.736 13.472 0.736 12.352C0.736 11.232 0.96 10.24 1.408 9.376C1.856 8.50133 2.49067 7.81867 3.312 7.328C4.13333 6.83733 5.07733 6.592 6.144 6.592ZM15.0999 6.16V18H13.2759V6.16H15.0999ZM21.3391 9.072C22.1925 9.072 22.9605 9.25333 23.6431 9.616C24.3258 9.97867 24.8591 10.5013 25.2431 11.184C25.6271 11.8667 25.8191 12.6667 25.8191 13.584C25.8191 14.512 25.6271 15.3173 25.2431 16C24.8591 16.6827 24.3258 17.2053 23.6431 17.568C22.9605 17.9307 22.1925 18.112 21.3391 18.112C20.4858 18.112 19.7178 17.9307 19.0351 17.568C18.3631 17.2053 17.8298 16.6827 17.4351 16C17.0511 15.3067 16.8591 14.5013 16.8591 13.584C16.8591 12.6667 17.0511 11.8667 17.4351 11.184C17.8298 10.5013 18.3631 9.97867 19.0351 9.616C19.7178 9.25333 20.4858 9.072 21.3391 9.072ZM21.3391 10.656C20.8698 10.656 20.4378 10.7627 20.0431 10.976C19.6485 11.1893 19.3285 11.52 19.0831 11.968C18.8485 12.4053 18.7311 12.944 18.7311 13.584C18.7311 14.2347 18.8485 14.7787 19.0831 15.216C19.3285 15.6533 19.6485 15.9787 20.0431 16.192C20.4378 16.4053 20.8698 16.512 21.3391 16.512C21.8085 16.512 22.2405 16.4053 22.6351 16.192C23.0298 15.9787 23.3445 15.6533 23.5791 15.216C23.8245 14.7787 23.9471 14.2347 23.9471 13.584C23.9471 12.944 23.8245 12.4053 23.5791 11.968C23.3445 11.52 23.0298 11.1893 22.6351 10.976C22.2405 10.7627 21.8085 10.656 21.3391 10.656ZM32.5008 9.04C33.5248 9.04 34.3461 9.37067 34.9648 10.032C35.5834 10.6933 35.8928 11.6373 35.8928 12.864V18H34.0688V13.056C34.0688 12.2667 33.8661 11.6587 33.4608 11.232C33.0554 10.7947 32.5008 10.576 31.7968 10.576C31.0714 10.576 30.4901 10.8107 30.0528 11.28C29.6154 11.7387 29.3968 12.416 29.3968 13.312V18H27.5728V9.184H29.3968V11.12C29.6314 10.4587 30.0261 9.94667 30.5807 9.584C31.1354 9.22133 31.7754 9.04 32.5008 9.04ZM46.2179 13.168C46.2179 13.4667 46.1965 13.728 46.1539 13.952H39.3699C39.4019 14.8587 39.6525 15.5307 40.1219 15.968C40.5912 16.4053 41.1725 16.624 41.8659 16.624C42.4739 16.624 42.9859 16.4693 43.4019 16.16C43.8285 15.8507 44.0899 15.44 44.1859 14.928H46.1379C46.0205 15.5467 45.7752 16.096 45.4019 16.576C45.0285 17.056 44.5432 17.4347 43.9459 17.712C43.3485 17.9787 42.6819 18.112 41.9459 18.112C41.0925 18.112 40.3352 17.9307 39.6739 17.568C39.0232 17.2053 38.5112 16.6827 38.1379 16C37.7645 15.3173 37.5779 14.512 37.5779 13.584C37.5779 12.6667 37.7645 11.8667 38.1379 11.184C38.5112 10.5013 39.0232 9.97867 39.6739 9.616C40.3352 9.25333 41.0925 9.072 41.9459 9.072C42.8099 9.072 43.5619 9.25333 44.2019 9.616C44.8525 9.968 45.3485 10.4587 45.6899 11.088C46.0419 11.7067 46.2179 12.4 46.2179 13.168ZM44.3779 13.12C44.3992 12.544 44.2979 12.064 44.0739 11.68C43.8605 11.2853 43.5619 10.9973 43.1779 10.816C42.8045 10.624 42.3939 10.528 41.9459 10.528C41.2312 10.528 40.6339 10.7467 40.1539 11.184C39.6739 11.6213 39.4125 12.2667 39.3699 13.12H44.3779ZM53.553 13.616V18H51.729V6.704H55.569C56.8703 6.704 57.8463 7.01333 58.497 7.632C59.1583 8.25067 59.489 9.09867 59.489 10.176C59.489 11.2427 59.153 12.0853 58.481 12.704C57.809 13.312 56.8383 13.616 55.569 13.616H53.553ZM55.377 12.128C56.881 12.128 57.633 11.4773 57.633 10.176C57.633 9.536 57.4517 9.05067 57.089 8.72C56.737 8.37867 56.1663 8.208 55.377 8.208H53.553V12.128H55.377ZM62.9124 10.912C63.211 10.336 63.6377 9.88267 64.1924 9.552C64.747 9.21067 65.387 9.04 66.1124 9.04V11.024H65.5684C64.7684 11.024 64.123 11.2213 63.6324 11.616C63.1524 12 62.9124 12.64 62.9124 13.536V18H61.0884V9.184H62.9124V10.912ZM71.511 9.072C72.3643 9.072 73.1323 9.25333 73.815 9.616C74.4977 9.97867 75.031 10.5013 75.415 11.184C75.799 11.8667 75.991 12.6667 75.991 13.584C75.991 14.512 75.799 15.3173 75.415 16C75.031 16.6827 74.4977 17.2053 73.815 17.568C73.1323 17.9307 72.3643 18.112 71.511 18.112C70.6577 18.112 69.8897 17.9307 69.207 17.568C68.535 17.2053 68.0017 16.6827 67.607 16C67.223 15.3067 67.031 14.5013 67.031 13.584C67.031 12.6667 67.223 11.8667 67.607 11.184C68.0017 10.5013 68.535 9.97867 69.207 9.616C69.8897 9.25333 70.6577 9.072 71.511 9.072ZM71.511 10.656C71.0417 10.656 70.6097 10.7627 70.215 10.976C69.8203 11.1893 69.5003 11.52 69.255 11.968C69.0203 12.4053 68.903 12.944 68.903 13.584C68.903 14.2347 69.0203 14.7787 69.255 15.216C69.5003 15.6533 69.8203 15.9787 70.215 16.192C70.6097 16.4053 71.0417 16.512 71.511 16.512C71.9803 16.512 72.4123 16.4053 72.807 16.192C73.2017 15.9787 73.5163 15.6533 73.751 15.216C73.9963 14.7787 74.119 14.2347 74.119 13.584C74.119 12.944 73.9963 12.4053 73.751 11.968C73.5163 11.52 73.2017 11.1893 72.807 10.976C72.4123 10.7627 71.9803 10.656 71.511 10.656ZM78.7366 7.664C78.3846 7.664 78.0966 7.568 77.8726 7.376C77.6593 7.184 77.5526 6.93333 77.5526 6.624C77.5526 6.31467 77.6593 6.05867 77.8726 5.856C78.0966 5.65333 78.3846 5.552 78.7366 5.552C79.0886 5.552 79.3713 5.65333 79.5846 5.856C79.798 6.05867 79.9046 6.31467 79.9046 6.624C79.9046 6.93333 79.798 7.184 79.5846 7.376C79.3713 7.568 79.0886 7.664 78.7366 7.664ZM76.1766 20.592H76.8006C77.1526 20.592 77.4086 20.512 77.5686 20.352C77.7393 20.2027 77.8246 19.9413 77.8246 19.568V9.184H79.6646V19.584C79.6646 21.3227 78.79 22.192 77.0406 22.192H76.1766V20.592ZM90.0304 13.168C90.0304 13.4667 90.009 13.728 89.9664 13.952H83.1824C83.2144 14.8587 83.465 15.5307 83.9344 15.968C84.4037 16.4053 84.985 16.624 85.6784 16.624C86.2864 16.624 86.7984 16.4693 87.2144 16.16C87.641 15.8507 87.9024 15.44 87.9984 14.928H89.9504C89.833 15.5467 89.5877 16.096 89.2144 16.576C88.841 17.056 88.3557 17.4347 87.7584 17.712C87.161 17.9787 86.4944 18.112 85.7584 18.112C84.905 18.112 84.1477 17.9307 83.4864 17.568C82.8357 17.2053 82.3237 16.6827 81.9504 16C81.577 15.3173 81.3904 14.512 81.3904 13.584C81.3904 12.6667 81.577 11.8667 81.9504 11.184C82.3237 10.5013 82.8357 9.97867 83.4864 9.616C84.1477 9.25333 84.905 9.072 85.7584 9.072C86.6224 9.072 87.3744 9.25333 88.0144 9.616C88.665 9.968 89.161 10.4587 89.5024 11.088C89.8544 11.7067 90.0304 12.4 90.0304 13.168ZM88.1904 13.12C88.2117 12.544 88.1104 12.064 87.8864 11.68C87.673 11.2853 87.3744 10.9973 86.9904 10.816C86.617 10.624 86.2064 10.528 85.7584 10.528C85.0437 10.528 84.4464 10.7467 83.9664 11.184C83.4864 11.6213 83.225 12.2667 83.1824 13.12H88.1904ZM95.7115 9.072C96.8528 9.072 97.7968 9.376 98.5435 9.984C99.2902 10.5813 99.7542 11.3973 99.9355 12.432H97.9995C97.8928 11.8773 97.6315 11.4453 97.2155 11.136C96.8102 10.816 96.2982 10.656 95.6795 10.656C94.9755 10.656 94.3888 10.9067 93.9195 11.408C93.4502 11.8987 93.2155 12.624 93.2155 13.584C93.2155 14.544 93.4502 15.2747 93.9195 15.776C94.3888 16.2773 94.9755 16.528 95.6795 16.528C96.2982 16.528 96.8102 16.368 97.2155 16.048C97.6315 15.728 97.8928 15.2907 97.9995 14.736H99.9355C99.7542 15.7707 99.2902 16.592 98.5435 17.2C97.7968 17.808 96.8528 18.112 95.7115 18.112C94.8582 18.112 94.1008 17.9307 93.4395 17.568C92.7888 17.2053 92.2768 16.6827 91.9035 16C91.5302 15.3173 91.3435 14.512 91.3435 13.584C91.3435 12.6667 91.5302 11.8667 91.9035 11.184C92.2768 10.5013 92.7888 9.97867 93.4395 9.616C94.1008 9.25333 94.8582 9.072 95.7115 9.072ZM106.13 16.416V18H105.01C104.071 18 103.356 17.776 102.866 17.328C102.386 16.8693 102.146 16.112 102.146 15.056V10.736H100.882V9.184H102.146V6.992H103.986V9.184H106.114V10.736H103.986V15.088C103.986 15.5893 104.076 15.936 104.258 16.128C104.45 16.32 104.78 16.416 105.25 16.416H106.13Z" fill="#FFC492"/>
<path d="M139.354 12.3536C139.549 12.1583 139.549 11.8417 139.354 11.6464L136.172 8.46447C135.976 8.2692 135.66 8.2692 135.464 8.46447C135.269 8.65973 135.269 8.97631 135.464 9.17157L138.293 12L135.464 14.8284C135.269 15.0237 135.269 15.3403 135.464 15.5355C135.66 15.7308 135.976 15.7308 136.172 15.5355L139.354 12.3536ZM119 12.5L139 12.5V11.5L119 11.5V12.5Z" fill="white"/>
</svg>
